<svg height="512" viewBox="0 0 58 58" width="512" xmlns="http://www.w3.org/2000/svg"><g id="013---Record"><path id="Shape" d="m35 29c0-3.3137085-2.6862915-6-6-6s-6 2.6862915-6 6 2.6862915 6 6 6 6-2.6862915 6-6zm-9 0c0-1.6568542 1.3431458-3 3-3s3 1.3431458 3 3-1.3431458 3-3 3-3-1.3431458-3-3z"/><circle id="Oval" cx="29" cy="29" r="1"/><path id="Shape" d="m29 0c-16.0162577 0-29 12.9837423-29 29s12.9837423 29 29 29 29-12.9837423 29-29-12.9837423-29-29-29zm17 28c.5522847 0 1 .4477153 1 1 0 9.9411255-8.0588745 18-18 18-.5522847 0-1-.4477153-1-1s.4477153-1 1-1c4.2434638 0 8.3131264-1.6857094 11.3137085-4.6862915s4.6862915-7.0702447 4.6862915-11.3137085c0-.5522847.4477153-1 1-1zm-18 14c0-.5522847.4477153-1 1-1h.92c.267022-.0220295.5317159.0640153.7347443.2388453s.3274078.4238206.3452557.6911547c.0401899.5491179-.3710621 1.0274218-.92 1.07-.36 0-.72 0-1.08 0-.5522847 0-1-.4477153-1-1zm13-13c0-.5522847.4477153-1 1-1s1 .4477153 1 1c-.0003357 5.6493863-3.3960877 10.7449863-8.61 12.92-.1225017.0551256-.2556887.082446-.39.08-.4748325-.0009089-.883553-.3356076-.9780733-.8009382-.0945202-.4653307.1512258-.9329679.5880733-1.1190618 4.4749086-1.861993 7.3903372-6.2331634 7.39-11.08zm-36 0c0 .5522847-.44771525 1-1 1s-1-.4477153-1-1c0-.69 0-1.39.08-2.08.02858125-.3572656.24559033-.6721447.56928203-.8260254s.70488955-.1233849 1 .08c.29511046.2033849.45929922.5487598.43071797.9060254-.08.64-.08 1.28-.08 1.92zm0-6c-.32173556.012956-.63002583-.1298052-.82826094-.3835461-.19823511-.253741-.26215879-.5874136-.17173906-.8964539 3.2799024-11.0796496 13.445106-18.6913541 25-18.72.5522847 0 1 .44771525 1 1s-.4477153 1-1 1c-10.6347095.05925326-19.9767403 7.0738998-23 17.27-.12451058.4452375-.53799617.747082-1 .73zm3 7c-.55228475 0-1-.4477153-1-1 0-12.1502645 9.8497355-22 22-22 .5522847 0 1 .44771525 1 1s-.4477153 1-1 1c-11.045695 0-20 8.954305-20 20 0 .2652165-.10535684.5195704-.29289322.7071068s-.44189029.2928932-.70710678.2928932zm4 0c-.5522847 0-1-.4477153-1-1 0-9.9411255 8.0588745-18 18-18 .5522847 0 1 .4477153 1 1s-.4477153 1-1 1c-8.836556 0-16 7.163444-16 16 0 .5522847-.4477153 1-1 1zm18-14c0 .5522847-.4477153 1-1 1-.31 0-.62 0-.92 0-.5421975.0466206-1.0221388-.3488867-1.08-.89-.0306611-.2702919.0501142-.5414106.2237033-.7508495.173589-.209439.4250096-.339122.6962967-.3591505h1.08c.5522847 0 1 .4477153 1 1zm-13 13c0 .5522847-.4477153 1-1 1s-1-.4477153-1-1c.0003357-5.6493863 3.3960877-10.7449863 8.61-12.92.5023593-.1903581 1.065361.0502133 1.2750326.5448231.2096715.4946099-.0089144 1.0665065-.4950326 1.2951769-4.4749086 1.861993-7.3903372 6.2331634-7.39 11.08zm4 0c0-4.418278 3.581722-8 8-8s8 3.581722 8 8-3.581722 8-8 8c-2.1217319 0-4.1565632-.8428547-5.6568542-2.3431458-1.5002911-1.500291-2.3431458-3.5351223-2.3431458-5.6568542zm32 0c0-.5522847.4477153-1 1-1s1 .4477153 1 1c0 .69 0 1.39-.08 2.08-.0441828.5522847-.5277153.9641828-1.08.92s-.9641828-.5277153-.92-1.08c.08-.64.08-1.28.08-1.92zm.28 6c.2736423.0642559.5076068.2407114.6445983.4861544.1369915.2454431.1643594.5372082.0754017.8038456-3.2835402 11.0756887-13.4478673 18.6826711-25 18.71-.5522847 0-1-.4477153-1-1s.4477153-1 1-1c10.6347095-.0592533 19.9767403-7.0738998 23-17.27.073564-.2639023.252178-.4860669.4941196-.6145984.2419416-.1285314.5260211-.1521728.7858804-.0654016zm-2.28-6c0 12.1502645-9.8497355 22-22 22-.5522847 0-1-.4477153-1-1s.4477153-1 1-1c11.045695 0 20-8.954305 20-20 0-.5522847.4477153-1 1-1s1 .4477153 1 1z"/></g></svg>