<svg height="512" viewBox="0 0 60 60" width="512" xmlns="http://www.w3.org/2000/svg"><g id="013---Record"><path id="Shape" d="m30 0c-16.5685425 0-30 13.4314575-30 30s13.4314575 30 30 30 30-13.4314575 30-30c0-7.9564947-3.1607052-15.5871121-8.7867966-21.21320344-5.6260913-5.62609135-13.2567087-8.78679656-21.2132034-8.78679656zm0 58c-15.463973 0-28-12.536027-28-28s12.536027-28 28-28 28 12.536027 28 28-12.536027 28-28 28z"/><path id="Shape" d="m30 6c.5522847 0 1-.44771525 1-1s-.4477153-1-1-1c-11.5521327.02732889-21.7164598 7.6343113-25 18.71-.15463972.5522847.16771526 1.1253603.72 1.28.55228475.1546397 1.12536026-.1677153 1.28-.72 3.0232597-10.1961002 12.3652905-17.21074674 23-17.27z"/><path id="Shape" d="m5.16 27c-.26540805-.0220876-.52866258.0626086-.73140109.2353118-.20273852.1727031-.32821036.4191442-.34859891.6846882-.08.69-.08 1.39-.08 2.08 0 .5522847.44771525 1 1 1s1-.4477153 1-1c0-.64 0-1.28.08-1.92.02208761-.2654081-.06260858-.5286626-.23531176-.7314011s-.41914426-.3282104-.68468824-.3485989z"/><path id="Shape" d="m30 10c.5522847 0 1-.44771525 1-1s-.4477153-1-1-1c-12.1502645 0-22 9.8497355-22 22 0 .5522847.44771525 1 1 1s1-.4477153 1-1c0-11.045695 8.954305-20 20-20z"/><path id="Shape" d="m30 14c.5522847 0 1-.4477153 1-1s-.4477153-1-1-1c-9.9411255 0-18 8.0588745-18 18 0 .5522847.4477153 1 1 1s1-.4477153 1-1c0-8.836556 7.163444-16 16-16z"/><path id="Shape" d="m30 16c-.36 0-.72 0-1.08 0-.2712871.0200285-.5227077.1497115-.6962967.3591505-.1735891.2094389-.2543644.4805576-.2237033.7508495.0178479.2673341.1422273.5163247.3452557.6911547s.4677223.2608748.7347443.2388453h.92c.5522847 0 1-.4477153 1-1s-.4477153-1-1-1z"/><path id="Shape" d="m25.92 17.61c-.2157051-.5077826-.8018944-.7449432-1.31-.53-5.2139123 2.1750137-8.6096643 7.2706137-8.61 12.92 0 .5522847.4477153 1 1 1s1-.4477153 1-1c-.0003372-4.8468366 2.9150914-9.218007 7.39-11.08.5077826-.2157051.7449432-.8018944.53-1.31z"/><path id="Shape" d="m30 54c-.5522847 0-1 .4477153-1 1s.4477153 1 1 1c11.5521327-.0273289 21.7164598-7.6343113 25-18.71.1546397-.5522847-.1677153-1.1253603-.72-1.28s-1.1253603.1677153-1.28.72c-3.0232597 10.1961002-12.3652905 17.2107467-23 17.27z"/><path id="Shape" d="m54.84 33c.2654081.0220876.5286626-.0626086.7314011-.2353118.2027385-.1727031.3282104-.4191442.3485989-.6846882 0-.69.08-1.39.08-2.08 0-.5522847-.4477153-1-1-1s-1 .4477153-1 1c0 .64 0 1.28-.08 1.92-.0220876.2654081.0626086.5286626.2353118.7314011.1727031.2027385.4191442.3282104.6846882.3485989z"/><path id="Shape" d="m30 50c-.5522847 0-1 .4477153-1 1s.4477153 1 1 1c12.1502645 0 22-9.8497355 22-22 0-.5522847-.4477153-1-1-1s-1 .4477153-1 1c0 11.045695-8.954305 20-20 20z"/><path id="Shape" d="m30 46c-.5522847 0-1 .4477153-1 1s.4477153 1 1 1c9.9411255 0 18-8.0588745 18-18 0-.5522847-.4477153-1-1-1s-1 .4477153-1 1c0 4.2434638-1.6857094 8.3131264-4.6862915 11.3137085s-7.0702447 4.6862915-11.3137085 4.6862915z"/><path id="Shape" d="m30 44h1.08c.2712871-.0200285.5227077-.1497115.6962967-.3591505.1735891-.2094389.2543644-.4805576.2237033-.7508495-.0578612-.5411133-.5378025-.9366206-1.08-.89-.3 0-.61 0-.92 0-.5522847 0-1 .4477153-1 1s.4477153 1 1 1z"/><path id="Shape" d="m34.08 42.39c.2157051.5077826.8018944.7449432 1.31.53 5.2139123-2.1750137 8.6096643-7.2706137 8.61-12.92 0-.5522847-.4477153-1-1-1s-1 .4477153-1 1c.0003372 4.8468366-2.9150914 9.218007-7.39 11.08-.5077826.2157051-.7449432.8018944-.53 1.31z"/><path id="Shape" d="m38 30c0-4.418278-3.581722-8-8-8s-8 3.581722-8 8 3.581722 8 8 8 8-3.581722 8-8zm-14 0c0-3.3137085 2.6862915-6 6-6s6 2.6862915 6 6-2.6862915 6-6 6-6-2.6862915-6-6z"/><path id="Shape" d="m33 30c0-1.6568542-1.3431458-3-3-3s-3 1.3431458-3 3 1.3431458 3 3 3 3-1.3431458 3-3zm-4 0c0-.5522847.4477153-1 1-1s1 .4477153 1 1-.4477153 1-1 1-1-.4477153-1-1z"/></g></svg>